# xmcd
#
# Track frame offsets:
#	150
#	11645
#	21646
#	32212
#	44400
#	57849
#	68922
#	77687
#	88152
#	97905
#	107028
#	119590
#	129265
#	142019
#	163964
#
# Disc length: 4440 seconds
#
# Revision: 1
# Processed by: cddbd v1.5.1PL0 Copyright (c) Steve Scherf et al.
# Submitted via: audiograbber 1.83.01
#
DISCID=d311560f
DTITLE=Tonico and Tinoco - Com Você
DYEAR=1900
DGENRE=Sertaneja
TTITLE0=O Sanfoneiro Só Tocava Isso
TTITLE1=Cana Verde
TTITLE2=Baile Na Roça
TTITLE3=Bate Co Pé, Bate Cá Mão 
TTITLE4=Viola De Ouro
TTITLE5=No Meu Pé De Serra
TTITLE6=Boiadeiro Saudoso
TTITLE7=Vai Zé
TTITLE8=Pagode Lascado
TTITLE9=Viva a Viola
TTITLE10=Porteira Da Estrada
TTITLE11=Bailão Gaucho
TTITLE12=Poncho Velho
TTITLE13=Adeus Moçada
TTITLE14=Dados da faixa
EXTD=
EXTT0=
EXTT1=
EXTT2=
EXTT3=
EXTT4=
EXTT5=
EXTT6=
EXTT7=
EXTT8=
EXTT9=
EXTT10=
EXTT11=
EXTT12=
EXTT13=
EXTT14=
PLAYORDER=
